<svg xmlns="http://www.w3.org/2000/svg" viewBox="0 0 380.31 380.07"><g id="Capa_2" data-name="Capa 2"><g id="Capa_1-2" data-name="Capa 1"><path d="M380.29,190.12c1.35,105.61-90.55,191-191.76,189.94C90.5,379.06-1.07,297.39,0,189,1,85.41,87-.2,191.14,0,295.83.2,381,90.23,380.29,190.12ZM59.84,201.89c0-2.71-.16-5.43,0-8.13a7.69,7.69,0,0,0-2.61-6.9,26.26,26.26,0,0,1-8-16.16C46.8,151.93,58,139.39,69.15,126.23c6.58,9.7,12.81,19,15.29,30,2.94,13.18-1.91,25.88-12,31.82a5.37,5.37,0,0,0-3,5.32c-.1,13-.33,26-.49,39a7.08,7.08,0,0,0,.53,1.6,26.44,26.44,0,0,1,2.25-4c2.26-2.7,2.41-5.48,2-9a25.15,25.15,0,0,1,1.22-11.72c6.12-15.92,20.48-20.06,35.93-24.29-.66,8.43-.51,16.26-2,23.75C106.15,221.86,97.9,230,84.29,232c-1.07.16-2.51.34-3.07,1.05-5.54,7.08-11.36,14.12-11.63,23.74-.2,7-.1,14-.1,21a28.57,28.57,0,0,0,.35,3c1.72-2.21,3-4.05,4.49-5.74,2.52-2.92,4-6,3.69-10.12-.38-5,1.72-9.53,4.77-13.5,8.47-11,20.75-13.83,33.93-15.85-.23,5.24-.25,10.09-.71,14.9-1.44,15.05-10.93,26.52-24.24,27.17-7,.33-11,3.11-14.48,8.26a16.26,16.26,0,0,1-1.87,2.34c-5.62,5.71-2.92,12.34-2.34,18.8,4.71-5.08,8.88-10.37,13.3-15.44A7.55,7.55,0,0,1,90.93,289c20.07-1.09,34.15-18.67,35.15-36.2.28-5,.49-9.91.73-14.91a544.85,544.85,0,0,1,127.31.09c0,5.47-.31,10.73.06,15.93,1.12,15.63,13.06,30.8,28.26,33.52,8.15,1.45,13.14,5.25,17.32,11.57a70.58,70.58,0,0,0,5.48,6.65,19.82,19.82,0,0,0,1.88,1.65c2-13.39,1.91-13.85-5.92-23.68a19.85,19.85,0,0,0-3.12-3.72,7.78,7.78,0,0,0-4.41-1.87,26.85,26.85,0,0,1-21.94-9.45c-8.32-9.39-8-21-8.42-32.88,11.28,1.31,21.61,3.78,30.06,11.15,5.37,4.69,9.22,10.52,8.79,17.88-.39,6.67,4.71,9.45,7.92,13.72.42-5.39-.08-10.67.52-15.84,1.33-11.52-4.18-20.23-10.92-28.5a7.24,7.24,0,0,0-4.29-2.4A26.77,26.77,0,0,1,278.46,223c-10.06-10.83-8.59-24.26-9.12-37.48,9,1.3,21.1,6.53,27,11.79,6.85,6.07,11.77,13.46,10.13,22.92-.83,4.77,1.31,7.23,3.89,10.85,0-13.76,0-26.84-.07-39.91,0-.72-1-1.68-1.72-2.11-7.58-4.35-11.77-11-13.25-19.44-3-17.23,6.82-29.82,15.58-43.48,3.35,4.25,6.38,7.88,9.17,11.7a88.35,88.35,0,0,1,6.35,9.7c7.48,13.71,6.69,29.54-4.76,40.73a4.27,4.27,0,0,0-1.42,2.49c-.15,4.13-.07,8.28-.07,13.14,8.16-11.23,18.75-17.66,28.14-17.37.56,9.11,1.31,18.25-4.27,26.37s-13.76,11-23.36,10.5v19.73c6.27-9.15,15.42-10.66,25-12.33-.36,8.95-.2,17.49-5.51,24.84-4.85,6.72-11.4,10.21-19.84,9.88v23.81c2.58-3.59,4.52-6.62,6.81-9.35,1.54-1.83,3.35-3.81,5.47-4.7,5.75-2.42,10.54-6,13.55-11.33a94.2,94.2,0,0,0,6.93-15.28c9-26.3,12.57-53.33,8-80.85-9.35-56.42-38.88-99.53-88.35-128.12-42.4-24.52-87.72-28.66-134.21-13.86-71,22.61-120,91.42-121,161.61a173.08,173.08,0,0,0,12.94,69.45c3.51,8.46,9.19,15.07,18,18.6,1.36.54,2.49,2,3.43,3.25,2.45,3.32,4.74,6.76,7.55,10.8V265.75C41.76,262.61,30.78,246.91,35,231.11c11.35,1.08,17.71,3.91,24.19,10.83V223.13c-17.27,1.51-32.4-12.7-26.5-37.24C42.83,189,53.15,191.77,59.84,201.89Z"/><path d="M267.11,141.52v11.11h-154V141.57h43.74c1.25,0,2.81.38,3.68-.22,1.56-1.07,3.76-2.76,3.75-4.17s-2.14-3.22-3.73-4.26c-1-.64-2.67-.23-4-.23h-55l-.27-.73a15.08,15.08,0,0,1,2.12-1.46q42.38-19.87,84.82-39.63a5.51,5.51,0,0,1,4.05.26q24.83,11.4,49.56,23c10.86,5.07,21.69,10.2,32.52,15.31,1.45.69,2.86,1.46,4.29,2.19,0,.36-.05.72-.07,1.08H222.78c-5,0-7.68,1.6-7.61,4.63s2.5,4.26,7.51,4.25l39-.08Zm-77.79-30A10.65,10.65,0,0,0,178.47,122c.06,6.06,5.2,11.34,11.09,11.4a10.88,10.88,0,0,0,11.37-10.85C200.93,116.21,196,111.52,189.32,111.53Z"/><path d="M140.91,225.38H115.19c3-3.1,3.26-7.83,8-9.12.6-.16,1.12-1.81,1.12-2.77.06-14.35.09-28.7-.07-43,0-1.5-1.25-3-2-4.49-.46-.93-1-1.82-1.55-2.72.93-.41,1.87-1.16,2.81-1.18,6-.12,12-.12,18-.05a8.78,8.78,0,0,1,2.61.92c-.37.85-.73,1.71-1.08,2.56-.7,1.71-2,3.42-2,5.13-.16,16.84-.11,33.68-.13,50.52Z"/><path d="M239.09,225.28V190.22c0-3.74.15-7.49,0-11.23-.27-5.5,1.76-11.67-5.57-16a30.32,30.32,0,0,1,4.55-1c5.87-.08,11.73-.11,17.59,0a10.61,10.61,0,0,1,3,.94c-.43.94-.88,1.87-1.29,2.81-.57,1.29-1.6,2.58-1.61,3.88-.12,14.59-.1,29.19-.06,43.79a4.19,4.19,0,0,0,.82,2.64c2.63,2.89,5.42,5.63,8.93,9.22Z"/><path d="M169.89,224.87H153.75v-5.66q-.09-23.21-.15-46.41c0-2.93,0-5.74-3.06-7.47a2.83,2.83,0,0,1-.91-2.22c0-.37,1.1-1,1.7-1,7.08-.07,14.17,0,21.52,0-.11,1,.08,2.1-.29,2.35-3.14,2.14-2.62,5.37-2.63,8.41q0,23.94,0,47.9Z"/><path d="M229.74,162.42c-.31,1.08-.28,2.43-.86,2.77-2.88,1.69-2.45,4.39-2.45,7q0,24.38,0,48.73v3.94H210.09v-4.35c0-14.12,0-28.24-.09-42.36,0-5.32,1.33-11-4.29-15.07l.75-.63Z"/><path d="M178,162.37c1.31-.13,2.63-.35,3.94-.35,5.62,0,11.24-.05,16.86,0a8.13,8.13,0,0,1,2.55,1c-.33.77-.46,1.94-1,2.22-2.77,1.38-2.39,3.85-2.39,6.18,0,17.6,0,35.2,0,53.11H182.05c0-2.45,0-4.9,0-7.36-.05-13,0-26-.18-39-.06-5.32,1.34-11.12-4.62-14.94Z"/><path d="M194.74,49.29c10,.05,19.18-5.51,29.43-1.39-6.57,4.67-3.41,9.56-.45,14l-28.91,4.89V80H185V63.41c0-8.12,0-16.25,0-24.37,0-3.77,1.73-5.58,5-5.53,3.08.05,4.68,1.81,4.74,5.43C194.78,42.28,194.74,45.62,194.74,49.29Z"/></g></g></svg>